<svg xmlns="http://www.w3.org/2000/svg" viewBox="0 0 1280 720" role="img" aria-label="AXLE mock scene CITY CANYON">
  <defs>
    <linearGradient id="sky" x1="0" y1="0" x2="0" y2="1"><stop offset="0" stop-color="#111827"/><stop offset="0.65" stop-color="#334155"/><stop offset="1" stop-color="#111827"/></linearGradient>
    <linearGradient id="road" x1="0" y1="0" x2="0" y2="1"><stop offset="0" stop-color="#374151"/><stop offset="1" stop-color="#111827"/></linearGradient>
    <filter id="grain"><feTurbulence type="fractalNoise" baseFrequency="0.9" numOctaves="2" stitchTiles="stitch"/><feColorMatrix type="saturate" values="0"/><feComponentTransfer><feFuncA type="table" tableValues="0 0.08"/></feComponentTransfer></filter>
  </defs>
  <rect width="1280" height="720" fill="url(#sky)"/>
  <circle cx="260" cy="120" r="78" fill="#f59e0b" opacity="0.55"/>
  <g opacity="0.72">
    <path d="M0 330 C180 250 290 350 420 280 S650 300 760 245 S1030 280 1280 210 L1280 720 L0 720 Z" fill="#334155"/>
    <path d="M0 410 C200 350 360 430 520 355 S820 390 940 330 S1120 345 1280 310 L1280 720 L0 720 Z" fill="#0b1220" opacity="0.55"/>
  </g>
  <g opacity="0.95">
    <path d="M500 720 L620 360 L690 360 L850 720 Z" fill="url(#road)"/>
    <path d="M635 382 L640 382 L650 720 L620 720 Z" fill="#f59e0b" opacity="0.9"/>
    <path d="M672 382 L677 382 L720 720 L690 720 Z" fill="#e5e7eb" opacity="0.7"/>
  </g>
  <g opacity="0.75"><rect x="50" y="100" width="70" height="260" fill="#111827"/><g fill="#f59e0b" opacity="0.45"><rect x="62" y="120" width="8" height="12"/><rect x="62" y="148" width="8" height="12"/><rect x="62" y="176" width="8" height="12"/><rect x="62" y="204" width="8" height="12"/><rect x="62" y="232" width="8" height="12"/><rect x="80" y="120" width="8" height="12"/><rect x="80" y="148" width="8" height="12"/><rect x="80" y="176" width="8" height="12"/><rect x="80" y="204" width="8" height="12"/><rect x="80" y="232" width="8" height="12"/><rect x="98" y="120" width="8" height="12"/><rect x="98" y="148" width="8" height="12"/><rect x="98" y="176" width="8" height="12"/><rect x="98" y="204" width="8" height="12"/><rect x="98" y="232" width="8" height="12"/></g><rect x="130" y="140" width="70" height="220" fill="#111827"/><g fill="#f59e0b" opacity="0.45"><rect x="142" y="160" width="8" height="12"/><rect x="142" y="188" width="8" height="12"/><rect x="142" y="216" width="8" height="12"/><rect x="142" y="244" width="8" height="12"/><rect x="142" y="272" width="8" height="12"/><rect x="160" y="160" width="8" height="12"/><rect x="160" y="188" width="8" height="12"/><rect x="160" y="216" width="8" height="12"/><rect x="160" y="244" width="8" height="12"/><rect x="160" y="272" width="8" height="12"/><rect x="178" y="160" width="8" height="12"/><rect x="178" y="188" width="8" height="12"/><rect x="178" y="216" width="8" height="12"/><rect x="178" y="244" width="8" height="12"/><rect x="178" y="272" width="8" height="12"/></g><rect x="220" y="50" width="70" height="310" fill="#111827"/><g fill="#f59e0b" opacity="0.45"><rect x="232" y="70" width="8" height="12"/><rect x="232" y="98" width="8" height="12"/><rect x="232" y="126" width="8" height="12"/><rect x="232" y="154" width="8" height="12"/><rect x="232" y="182" width="8" height="12"/><rect x="250" y="70" width="8" height="12"/><rect x="250" y="98" width="8" height="12"/><rect x="250" y="126" width="8" height="12"/><rect x="250" y="154" width="8" height="12"/><rect x="250" y="182" width="8" height="12"/><rect x="268" y="70" width="8" height="12"/><rect x="268" y="98" width="8" height="12"/><rect x="268" y="126" width="8" height="12"/><rect x="268" y="154" width="8" height="12"/><rect x="268" y="182" width="8" height="12"/></g><rect x="970" y="110" width="70" height="250" fill="#111827"/><g fill="#f59e0b" opacity="0.45"><rect x="982" y="130" width="8" height="12"/><rect x="982" y="158" width="8" height="12"/><rect x="982" y="186" width="8" height="12"/><rect x="982" y="214" width="8" height="12"/><rect x="982" y="242" width="8" height="12"/><rect x="1000" y="130" width="8" height="12"/><rect x="1000" y="158" width="8" height="12"/><rect x="1000" y="186" width="8" height="12"/><rect x="1000" y="214" width="8" height="12"/><rect x="1000" y="242" width="8" height="12"/><rect x="1018" y="130" width="8" height="12"/><rect x="1018" y="158" width="8" height="12"/><rect x="1018" y="186" width="8" height="12"/><rect x="1018" y="214" width="8" height="12"/><rect x="1018" y="242" width="8" height="12"/></g><rect x="1080" y="30" width="70" height="330" fill="#111827"/><g fill="#f59e0b" opacity="0.45"><rect x="1092" y="50" width="8" height="12"/><rect x="1092" y="78" width="8" height="12"/><rect x="1092" y="106" width="8" height="12"/><rect x="1092" y="134" width="8" height="12"/><rect x="1092" y="162" width="8" height="12"/><rect x="1110" y="50" width="8" height="12"/><rect x="1110" y="78" width="8" height="12"/><rect x="1110" y="106" width="8" height="12"/><rect x="1110" y="134" width="8" height="12"/><rect x="1110" y="162" width="8" height="12"/><rect x="1128" y="50" width="8" height="12"/><rect x="1128" y="78" width="8" height="12"/><rect x="1128" y="106" width="8" height="12"/><rect x="1128" y="134" width="8" height="12"/><rect x="1128" y="162" width="8" height="12"/></g><rect x="1180" y="80" width="70" height="280" fill="#111827"/><g fill="#f59e0b" opacity="0.45"><rect x="1192" y="100" width="8" height="12"/><rect x="1192" y="128" width="8" height="12"/><rect x="1192" y="156" width="8" height="12"/><rect x="1192" y="184" width="8" height="12"/><rect x="1192" y="212" width="8" height="12"/><rect x="1210" y="100" width="8" height="12"/><rect x="1210" y="128" width="8" height="12"/><rect x="1210" y="156" width="8" height="12"/><rect x="1210" y="184" width="8" height="12"/><rect x="1210" y="212" width="8" height="12"/><rect x="1228" y="100" width="8" height="12"/><rect x="1228" y="128" width="8" height="12"/><rect x="1228" y="156" width="8" height="12"/><rect x="1228" y="184" width="8" height="12"/><rect x="1228" y="212" width="8" height="12"/></g></g>
  <rect width="1280" height="720" filter="url(#grain)" opacity="0.45"/>
</svg>